<svg width="999" height="1024" viewBox="0 0 999 1024" fill="none" xmlns="http://www.w3.org/2000/svg">
<path opacity="0.5" d="M314.491 50.227C196.004 142.091 177.643 315.8 97.3961 443.951C69.4615 488.543 33.3662 528.451 14.5339 577.92C-28.702 691.151 30.8029 819.592 110.448 909.524C148.426 952.426 192.787 991.731 246.459 1009.81C287.733 1023.72 331.989 1024.3 375.434 1024.66L1136.57 1031.91C1221.55 1032.7 1315.98 1029.83 1377.08 969.133C1419.19 927.342 1436.3 866.308 1450.81 808.051C1468.65 736.467 1484.82 658.727 1457.06 590.547C1425.36 512.541 1345.19 468.335 1295.39 401.025C1214.57 291.971 1216.43 127.026 1113.5 39.9663C1065.46 -0.666393 1002.05 -16.6008 940.273 -24.5679C823.801 -39.609 713.475 -11.2169 599.094 -15.1763C501.323 -18.5563 395.601 -12.6654 314.491 50.227Z" fill="#7CE6D7" fill-opacity="0.6"/>
</svg>
