<svg width="832" height="1024" viewBox="0 0 832 1024" fill="none" xmlns="http://www.w3.org/2000/svg">
<path opacity="0.5" d="M-325.509 78.227C-443.996 170.091 -462.357 343.8 -542.604 471.951C-570.539 516.543 -606.634 556.451 -625.466 605.92C-668.702 719.151 -609.197 847.592 -529.552 937.524C-491.574 980.426 -447.213 1019.73 -393.541 1037.81C-352.267 1051.72 -308.011 1052.3 -264.566 1052.66L496.574 1059.91C581.555 1060.7 675.978 1057.83 737.079 997.133C779.19 955.342 796.296 894.308 810.812 836.051C828.651 764.467 844.815 686.727 817.064 618.547C785.363 540.541 705.194 496.335 655.393 429.025C574.571 319.971 576.429 155.026 473.505 67.9663C425.456 27.3336 362.054 11.3992 300.273 3.43205C183.801 -11.609 73.4746 16.7831 -40.9056 12.8237C-138.677 9.44366 -244.399 15.3346 -325.509 78.227Z" fill="#EDCEEC"/>
</svg>
