<svg width="862" height="1024" viewBox="0 0 862 1024" fill="none" xmlns="http://www.w3.org/2000/svg">
<path opacity="0.5" d="M314.491 64.227C196.004 156.091 177.643 329.8 97.3961 457.951C69.4615 502.543 33.3662 542.451 14.5339 591.92C-28.702 705.151 30.8029 833.592 110.448 923.524C148.426 966.426 192.787 1005.73 246.459 1023.81C287.733 1037.72 331.989 1038.3 375.434 1038.66L1136.57 1045.91C1221.55 1046.7 1315.98 1043.83 1377.08 983.133C1419.19 941.342 1436.3 880.308 1450.81 822.051C1468.65 750.467 1484.82 672.727 1457.06 604.547C1425.36 526.541 1345.19 482.335 1295.39 415.025C1214.57 305.971 1216.43 141.026 1113.5 53.9663C1065.46 13.3336 1002.05 -2.60076 940.273 -10.5679C823.801 -25.609 713.475 2.78313 599.094 -1.17632C501.323 -4.55634 395.601 1.33455 314.491 64.227Z" fill="#EDCEEC"/>
</svg>
