<svg width="510" height="401" viewBox="0 0 510 401" fill="none" xmlns="http://www.w3.org/2000/svg">
<g clip-path="url(#clip0)">
<path opacity="0.1" d="M146.509 68.7731H108.252C106.045 68.7731 104.256 70.5329 104.256 72.7037V78.5971C104.256 80.7679 106.045 82.5277 108.252 82.5277H146.509C148.715 82.5277 150.504 80.7679 150.504 78.5971V72.7037C150.504 70.5329 148.715 68.7731 146.509 68.7731Z" fill="#7CE6D7"/>
<path opacity="0.1" d="M194.907 82.5277H156.651C154.444 82.5277 152.655 84.2875 152.655 86.4583V92.3517C152.655 94.5225 154.444 96.2823 156.651 96.2823H194.907C197.114 96.2823 198.903 94.5225 198.903 92.3517V86.4583C198.903 84.2875 197.114 82.5277 194.907 82.5277Z" fill="#7CE6D7"/>
<path opacity="0.1" d="M243.306 96.2823H205.05C202.843 96.2823 201.054 98.0421 201.054 100.213V106.106C201.054 108.277 202.843 110.037 205.05 110.037H243.306C245.513 110.037 247.302 108.277 247.302 106.106V100.213C247.302 98.0421 245.513 96.2823 243.306 96.2823Z" fill="#7CE6D7"/>
<path opacity="0.1" d="M146.509 48.1412H108.252C106.045 48.1412 104.256 49.901 104.256 52.0718V57.9651C104.256 60.136 106.045 61.8958 108.252 61.8958H146.509C148.715 61.8958 150.504 60.136 150.504 57.9651V52.0718C150.504 49.901 148.715 48.1412 146.509 48.1412Z" fill="#7CE6D7"/>
<path opacity="0.1" d="M194.907 61.8958H156.651C154.444 61.8958 152.655 63.6556 152.655 65.8264V71.7198C152.655 73.8906 154.444 75.6504 156.651 75.6504H194.907C197.114 75.6504 198.903 73.8906 198.903 71.7198V65.8264C198.903 63.6556 197.114 61.8958 194.907 61.8958Z" fill="#7CE6D7"/>
<path opacity="0.1" d="M243.306 75.6504H205.05C202.843 75.6504 201.054 77.4102 201.054 79.581V85.4744C201.054 87.6452 202.843 89.405 205.05 89.405H243.306C245.513 89.405 247.302 87.6452 247.302 85.4744V79.581C247.302 77.4102 245.513 75.6504 243.306 75.6504Z" fill="#7CE6D7"/>
<path opacity="0.1" d="M297.083 68.7731H258.826C256.619 68.7731 254.831 70.5329 254.831 72.7037V78.5971C254.831 80.7679 256.619 82.5277 258.826 82.5277H297.083C299.289 82.5277 301.078 80.7679 301.078 78.5971V72.7037C301.078 70.5329 299.289 68.7731 297.083 68.7731Z" fill="#7CE6D7"/>
<path opacity="0.1" d="M345.482 82.5277H307.225C305.018 82.5277 303.229 84.2875 303.229 86.4583V92.3517C303.229 94.5225 305.018 96.2823 307.225 96.2823H345.482C347.688 96.2823 349.477 94.5225 349.477 92.3517V86.4583C349.477 84.2875 347.688 82.5277 345.482 82.5277Z" fill="#7CE6D7"/>
<path opacity="0.1" d="M393.881 96.2823H355.624C353.417 96.2823 351.628 98.0421 351.628 100.213V106.106C351.628 108.277 353.417 110.037 355.624 110.037H393.881C396.087 110.037 397.876 108.277 397.876 106.106V100.213C397.876 98.0421 396.087 96.2823 393.881 96.2823Z" fill="#7CE6D7"/>
<path opacity="0.1" d="M297.083 48.1412H258.826C256.619 48.1412 254.831 49.901 254.831 52.0718V57.9651C254.831 60.136 256.619 61.8958 258.826 61.8958H297.083C299.289 61.8958 301.078 60.136 301.078 57.9651V52.0718C301.078 49.901 299.289 48.1412 297.083 48.1412Z" fill="#7CE6D7"/>
<path opacity="0.1" d="M345.482 61.8958H307.225C305.018 61.8958 303.229 63.6556 303.229 65.8264V71.7198C303.229 73.8906 305.018 75.6504 307.225 75.6504H345.482C347.688 75.6504 349.477 73.8906 349.477 71.7198V65.8264C349.477 63.6556 347.688 61.8958 345.482 61.8958Z" fill="#7CE6D7"/>
<path opacity="0.1" d="M393.881 75.6504H355.624C353.417 75.6504 351.628 77.4102 351.628 79.581V85.4744C351.628 87.6452 353.417 89.405 355.624 89.405H393.881C396.087 89.405 397.876 87.6452 397.876 85.4744V79.581C397.876 77.4102 396.087 75.6504 393.881 75.6504Z" fill="#7CE6D7"/>
<path opacity="0.1" d="M146.509 20.6319H108.252C106.045 20.6319 104.256 22.3917 104.256 24.5626V30.4559C104.256 32.6267 106.045 34.3865 108.252 34.3865H146.509C148.715 34.3865 150.504 32.6267 150.504 30.4559V24.5626C150.504 22.3917 148.715 20.6319 146.509 20.6319Z" fill="#7CE6D7"/>
<path opacity="0.1" d="M194.907 34.3865H156.651C154.444 34.3865 152.655 36.1463 152.655 38.3172V44.2105C152.655 46.3813 154.444 48.1411 156.651 48.1411H194.907C197.114 48.1411 198.903 46.3813 198.903 44.2105V38.3172C198.903 36.1463 197.114 34.3865 194.907 34.3865Z" fill="#7CE6D7"/>
<path opacity="0.1" d="M243.306 48.1412H205.05C202.843 48.1412 201.054 49.901 201.054 52.0718V57.9651C201.054 60.136 202.843 61.8958 205.05 61.8958H243.306C245.513 61.8958 247.302 60.136 247.302 57.9651V52.0718C247.302 49.901 245.513 48.1412 243.306 48.1412Z" fill="#7CE6D7"/>
<path opacity="0.1" d="M146.509 0H108.252C106.045 0 104.256 1.75981 104.256 3.93065V9.82397C104.256 11.9948 106.045 13.7546 108.252 13.7546H146.509C148.715 13.7546 150.504 11.9948 150.504 9.82397V3.93065C150.504 1.75981 148.715 0 146.509 0Z" fill="#7CE6D7"/>
<path opacity="0.1" d="M194.907 13.7546H156.651C154.444 13.7546 152.655 15.5144 152.655 17.6853V23.5786C152.655 25.7494 154.444 27.5092 156.651 27.5092H194.907C197.114 27.5092 198.903 25.7494 198.903 23.5786V17.6853C198.903 15.5144 197.114 13.7546 194.907 13.7546Z" fill="#7CE6D7"/>
<path opacity="0.1" d="M243.306 27.5092H205.05C202.843 27.5092 201.054 29.269 201.054 31.4399V37.3332C201.054 39.504 202.843 41.2639 205.05 41.2639H243.306C245.513 41.2639 247.302 39.504 247.302 37.3332V31.4399C247.302 29.269 245.513 27.5092 243.306 27.5092Z" fill="#7CE6D7"/>
<path opacity="0.1" d="M297.083 20.6319H258.826C256.619 20.6319 254.831 22.3917 254.831 24.5626V30.4559C254.831 32.6267 256.619 34.3865 258.826 34.3865H297.083C299.289 34.3865 301.078 32.6267 301.078 30.4559V24.5626C301.078 22.3917 299.289 20.6319 297.083 20.6319Z" fill="#7CE6D7"/>
<path opacity="0.1" d="M345.482 34.3865H307.225C305.018 34.3865 303.229 36.1463 303.229 38.3172V44.2105C303.229 46.3813 305.018 48.1411 307.225 48.1411H345.482C347.688 48.1411 349.477 46.3813 349.477 44.2105V38.3172C349.477 36.1463 347.688 34.3865 345.482 34.3865Z" fill="#7CE6D7"/>
<path opacity="0.1" d="M393.881 48.1412H355.624C353.417 48.1412 351.628 49.901 351.628 52.0718V57.9651C351.628 60.136 353.417 61.8958 355.624 61.8958H393.881C396.087 61.8958 397.876 60.136 397.876 57.9651V52.0718C397.876 49.901 396.087 48.1412 393.881 48.1412Z" fill="#7CE6D7"/>
<path opacity="0.1" d="M297.083 0H258.826C256.619 0 254.831 1.75981 254.831 3.93065V9.82397C254.831 11.9948 256.619 13.7546 258.826 13.7546H297.083C299.289 13.7546 301.078 11.9948 301.078 9.82397V3.93065C301.078 1.75981 299.289 0 297.083 0Z" fill="#7CE6D7"/>
<path opacity="0.1" d="M345.482 13.7546H307.225C305.018 13.7546 303.229 15.5144 303.229 17.6853V23.5786C303.229 25.7494 305.018 27.5092 307.225 27.5092H345.482C347.688 27.5092 349.477 25.7494 349.477 23.5786V17.6853C349.477 15.5144 347.688 13.7546 345.482 13.7546Z" fill="#7CE6D7"/>
<path opacity="0.1" d="M393.881 27.5092H355.624C353.417 27.5092 351.628 29.269 351.628 31.4399V37.3332C351.628 39.504 353.417 41.2639 355.624 41.2639H393.881C396.087 41.2639 397.876 39.504 397.876 37.3332V31.4399C397.876 29.269 396.087 27.5092 393.881 27.5092Z" fill="#7CE6D7"/>
<path opacity="0.1" d="M146.509 313.711H108.252C106.045 313.711 104.256 315.471 104.256 317.642V323.535C104.256 325.706 106.045 327.466 108.252 327.466H146.509C148.715 327.466 150.504 325.706 150.504 323.535V317.642C150.504 315.471 148.715 313.711 146.509 313.711Z" fill="#7CE6D7"/>
<path opacity="0.1" d="M194.907 327.466H156.651C154.444 327.466 152.655 329.225 152.655 331.396V337.29C152.655 339.46 154.444 341.22 156.651 341.22H194.907C197.114 341.22 198.903 339.46 198.903 337.29V331.396C198.903 329.225 197.114 327.466 194.907 327.466Z" fill="#7CE6D7"/>
<path opacity="0.1" d="M243.306 341.22H205.05C202.843 341.22 201.054 342.98 201.054 345.151V351.044C201.054 353.215 202.843 354.975 205.05 354.975H243.306C245.513 354.975 247.302 353.215 247.302 351.044V345.151C247.302 342.98 245.513 341.22 243.306 341.22Z" fill="#7CE6D7"/>
<path opacity="0.1" d="M146.509 293.079H108.252C106.045 293.079 104.256 294.839 104.256 297.01V302.903C104.256 305.074 106.045 306.834 108.252 306.834H146.509C148.715 306.834 150.504 305.074 150.504 302.903V297.01C150.504 294.839 148.715 293.079 146.509 293.079Z" fill="#7CE6D7"/>
<path opacity="0.1" d="M194.907 306.834H156.651C154.444 306.834 152.655 308.594 152.655 310.764V316.658C152.655 318.829 154.444 320.588 156.651 320.588H194.907C197.114 320.588 198.903 318.829 198.903 316.658V310.764C198.903 308.594 197.114 306.834 194.907 306.834Z" fill="#7CE6D7"/>
<path opacity="0.1" d="M243.306 320.588H205.05C202.843 320.588 201.054 322.348 201.054 324.519V330.412C201.054 332.583 202.843 334.343 205.05 334.343H243.306C245.513 334.343 247.302 332.583 247.302 330.412V324.519C247.302 322.348 245.513 320.588 243.306 320.588Z" fill="#7CE6D7"/>
<path opacity="0.1" d="M297.083 313.711H258.826C256.619 313.711 254.831 315.471 254.831 317.642V323.535C254.831 325.706 256.619 327.466 258.826 327.466H297.083C299.289 327.466 301.078 325.706 301.078 323.535V317.642C301.078 315.471 299.289 313.711 297.083 313.711Z" fill="#7CE6D7"/>
<path opacity="0.1" d="M345.482 327.466H307.225C305.018 327.466 303.229 329.225 303.229 331.396V337.29C303.229 339.46 305.018 341.22 307.225 341.22H345.482C347.688 341.22 349.477 339.46 349.477 337.29V331.396C349.477 329.225 347.688 327.466 345.482 327.466Z" fill="#7CE6D7"/>
<path opacity="0.1" d="M393.881 341.22H355.624C353.417 341.22 351.628 342.98 351.628 345.151V351.044C351.628 353.215 353.417 354.975 355.624 354.975H393.881C396.087 354.975 397.876 353.215 397.876 351.044V345.151C397.876 342.98 396.087 341.22 393.881 341.22Z" fill="#7CE6D7"/>
<path opacity="0.1" d="M297.083 293.079H258.826C256.619 293.079 254.831 294.839 254.831 297.01V302.903C254.831 305.074 256.619 306.834 258.826 306.834H297.083C299.289 306.834 301.078 305.074 301.078 302.903V297.01C301.078 294.839 299.289 293.079 297.083 293.079Z" fill="#7CE6D7"/>
<path opacity="0.1" d="M345.482 306.834H307.225C305.018 306.834 303.229 308.594 303.229 310.764V316.658C303.229 318.829 305.018 320.588 307.225 320.588H345.482C347.688 320.588 349.477 318.829 349.477 316.658V310.764C349.477 308.594 347.688 306.834 345.482 306.834Z" fill="#7CE6D7"/>
<path opacity="0.1" d="M393.881 320.588H355.624C353.417 320.588 351.628 322.348 351.628 324.519V330.412C351.628 332.583 353.417 334.343 355.624 334.343H393.881C396.087 334.343 397.876 332.583 397.876 330.412V324.519C397.876 322.348 396.087 320.588 393.881 320.588Z" fill="#7CE6D7"/>
<path opacity="0.1" d="M146.509 265.57H108.252C106.045 265.57 104.256 267.33 104.256 269.501V275.394C104.256 277.565 106.045 279.325 108.252 279.325H146.509C148.715 279.325 150.504 277.565 150.504 275.394V269.501C150.504 267.33 148.715 265.57 146.509 265.57Z" fill="#7CE6D7"/>
<path opacity="0.1" d="M194.907 279.325H156.651C154.444 279.325 152.655 281.084 152.655 283.255V289.148C152.655 291.319 154.444 293.079 156.651 293.079H194.907C197.114 293.079 198.903 291.319 198.903 289.148V283.255C198.903 281.084 197.114 279.325 194.907 279.325Z" fill="#7CE6D7"/>
<path opacity="0.1" d="M243.306 293.079H205.05C202.843 293.079 201.054 294.839 201.054 297.01V302.903C201.054 305.074 202.843 306.834 205.05 306.834H243.306C245.513 306.834 247.302 305.074 247.302 302.903V297.01C247.302 294.839 245.513 293.079 243.306 293.079Z" fill="#7CE6D7"/>
<path opacity="0.1" d="M146.509 244.938H108.252C106.045 244.938 104.256 246.698 104.256 248.869V254.762C104.256 256.933 106.045 258.693 108.252 258.693H146.509C148.715 258.693 150.504 256.933 150.504 254.762V248.869C150.504 246.698 148.715 244.938 146.509 244.938Z" fill="#7CE6D7"/>
<path opacity="0.1" d="M194.907 258.693H156.651C154.444 258.693 152.655 260.452 152.655 262.623V268.517C152.655 270.687 154.444 272.447 156.651 272.447H194.907C197.114 272.447 198.903 270.687 198.903 268.517V262.623C198.903 260.452 197.114 258.693 194.907 258.693Z" fill="#7CE6D7"/>
<path opacity="0.1" d="M243.306 272.447H205.05C202.843 272.447 201.054 274.207 201.054 276.378V282.271C201.054 284.442 202.843 286.202 205.05 286.202H243.306C245.513 286.202 247.302 284.442 247.302 282.271V276.378C247.302 274.207 245.513 272.447 243.306 272.447Z" fill="#7CE6D7"/>
<path opacity="0.1" d="M297.083 265.57H258.826C256.619 265.57 254.831 267.33 254.831 269.501V275.394C254.831 277.565 256.619 279.325 258.826 279.325H297.083C299.289 279.325 301.078 277.565 301.078 275.394V269.501C301.078 267.33 299.289 265.57 297.083 265.57Z" fill="#7CE6D7"/>
<path opacity="0.1" d="M345.482 279.325H307.225C305.018 279.325 303.229 281.084 303.229 283.255V289.148C303.229 291.319 305.018 293.079 307.225 293.079H345.482C347.688 293.079 349.477 291.319 349.477 289.148V283.255C349.477 281.084 347.688 279.325 345.482 279.325Z" fill="#7CE6D7"/>
<path opacity="0.1" d="M393.881 293.079H355.624C353.417 293.079 351.628 294.839 351.628 297.01V302.903C351.628 305.074 353.417 306.834 355.624 306.834H393.881C396.087 306.834 397.876 305.074 397.876 302.903V297.01C397.876 294.839 396.087 293.079 393.881 293.079Z" fill="#7CE6D7"/>
<path opacity="0.1" d="M297.083 244.938H258.826C256.619 244.938 254.831 246.698 254.831 248.869V254.762C254.831 256.933 256.619 258.693 258.826 258.693H297.083C299.289 258.693 301.078 256.933 301.078 254.762V248.869C301.078 246.698 299.289 244.938 297.083 244.938Z" fill="#7CE6D7"/>
<path opacity="0.1" d="M345.482 258.693H307.225C305.018 258.693 303.229 260.452 303.229 262.623V268.517C303.229 270.687 305.018 272.447 307.225 272.447H345.482C347.688 272.447 349.477 270.687 349.477 268.517V262.623C349.477 260.452 347.688 258.693 345.482 258.693Z" fill="#7CE6D7"/>
<path opacity="0.1" d="M393.881 272.447H355.624C353.417 272.447 351.628 274.207 351.628 276.378V282.271C351.628 284.442 353.417 286.202 355.624 286.202H393.881C396.087 286.202 397.876 284.442 397.876 282.271V276.378C397.876 274.207 396.087 272.447 393.881 272.447Z" fill="#7CE6D7"/>
<path opacity="0.1" d="M259.402 401C389.636 401 495.211 392.473 495.211 381.955C495.211 371.437 389.636 362.91 259.402 362.91C129.167 362.91 23.5918 371.437 23.5918 381.955C23.5918 392.473 129.167 401 259.402 401Z" fill="#7CE6D7"/>
<path d="M45.5218 98.8216C67.7584 108.302 80.5356 127.918 80.5356 127.918C80.5356 127.918 57.2558 132.15 35.0139 122.675C12.7719 113.2 0 93.579 0 93.579C0 93.579 23.2798 89.3415 45.5218 98.8216Z" fill="#7CE6D7"/>
<path d="M113.764 62.4248C120.642 51.3153 132.355 46.0251 132.355 46.0251C132.355 46.0251 132.893 58.6899 126.036 69.7677C119.18 80.8454 107.44 86.1304 107.44 86.1304C107.44 86.1304 106.881 73.4708 113.764 62.4248Z" fill="#7CE6D7"/>
<path d="M63.2034 74.312C68.1239 91.5899 81.6864 102.964 81.6864 102.964C81.6864 102.964 87.2737 86.3155 82.3532 69.0323C77.4326 51.7491 63.8648 40.3804 63.8648 40.3804C63.8648 40.3804 58.2775 57.0288 63.2034 74.312Z" fill="#46455B"/>
<path d="M452.077 73.5343H67.8011C65.6597 73.5343 63.9238 75.242 63.9238 77.3486V262.814C63.9238 264.92 65.6597 266.628 67.8011 266.628H452.077C454.218 266.628 455.954 264.92 455.954 262.814V77.3486C455.954 75.242 454.218 73.5343 452.077 73.5343Z" fill="#3F3D56"/>
<path opacity="0.1" d="M63.9238 254.989H455.954V262.814C455.954 263.825 455.546 264.795 454.819 265.511C454.092 266.226 453.105 266.628 452.077 266.628H67.8011C66.7728 266.628 65.7866 266.226 65.0595 265.511C64.3323 264.795 63.9238 263.825 63.9238 262.814V254.989Z" fill="black"/>
<path d="M129.8 240.706H103.45C102.707 240.706 102.105 241.298 102.105 242.028V253.667C102.105 254.397 102.707 254.989 103.45 254.989H129.8C130.543 254.989 131.145 254.397 131.145 253.667V242.028C131.145 241.298 130.543 240.706 129.8 240.706Z" fill="#7CE6D7"/>
<path d="M158.033 252.873H140.286C139.692 252.873 139.211 253.347 139.211 253.931C139.211 254.516 139.692 254.989 140.286 254.989H158.033C158.627 254.989 159.108 254.516 159.108 253.931C159.108 253.347 158.627 252.873 158.033 252.873Z" fill="#7CE6D7"/>
<path d="M121.545 111.296C135.737 113.872 150.214 111.296 164.346 109.55L207.297 104.26C209.034 104.043 211.562 103.022 212.584 105.112C213.159 106.281 212.772 108.815 212.815 110.159C212.928 113.862 212.917 117.565 212.815 121.268C212.621 128.346 212.094 135.409 211.422 142.455C210.115 156.247 208.265 169.965 207.34 183.809C206.867 190.856 206.631 197.924 206.84 204.97C206.889 206.653 206.959 208.335 207.061 210.012C207.174 211.89 208.029 214.678 205.948 215.932C204.759 216.651 202.42 216.614 201.059 216.826C198.908 217.159 196.757 217.423 194.563 217.64C180.103 219.063 165.454 218.471 150.94 218.386L107.112 218.164L96.4211 218.106C95.4531 218.106 91.963 218.677 91.3661 217.545C91.1134 217.064 91.7856 214.81 91.9039 214.207C92.0688 213.212 92.2481 212.22 92.4417 211.229C93.6893 204.272 95.1627 197.358 96.647 190.449C99.8359 175.636 103.1 160.749 104.412 145.619C105.063 138.028 104.633 130.367 105.429 122.792C105.8 119.274 106.241 111.423 111 111.111C115.033 110.846 119.185 111.111 123.229 111.111C123.443 111.111 123.648 111.027 123.799 110.878C123.95 110.73 124.035 110.528 124.035 110.317C124.035 110.107 123.95 109.905 123.799 109.756C123.648 109.607 123.443 109.524 123.229 109.524C119.411 109.524 115.587 109.423 111.769 109.497C109.231 109.545 107.467 110.137 106.257 112.433C103.165 118.327 103.482 126.188 103.385 132.621C103.154 148.021 100.75 163.093 97.6203 178.154C96.0447 185.735 94.3453 193.289 92.7804 200.876C92.0437 204.499 91.3392 208.134 90.6939 211.779C90.3928 213.514 88.8709 217.339 90.2099 218.931C91.549 220.524 95.6682 219.667 97.5128 219.677L110.344 219.751L134.93 219.889C150.816 219.979 166.755 220.418 182.636 219.957C190.218 219.735 198.231 219.428 205.614 217.646C207.814 217.117 208.873 216.122 208.959 213.816C209.088 210.239 208.497 206.552 208.421 202.96C207.884 172.224 215.224 141.916 214.471 111.169C214.423 109.079 215.224 103.81 212.901 102.546C211.858 101.975 210.503 102.287 209.405 102.414C207.308 102.652 205.216 102.943 203.119 103.186L175.881 106.529C167.175 107.588 158.474 108.73 149.751 109.704C140.518 110.762 131.193 111.391 121.992 109.704C120.975 109.518 120.54 111.047 121.562 111.233L121.545 111.296Z" fill="#7CE6D7"/>
<path d="M104.423 129.997L211.879 124.813C212.917 124.76 212.922 123.173 211.879 123.226L104.423 128.41C103.39 128.458 103.385 130.045 104.423 129.997Z" fill="#7CE6D7"/>
<path d="M137.528 116.914C137.228 117.228 137.009 117.608 136.893 118.023C136.776 118.439 136.764 118.876 136.857 119.296C136.951 119.717 137.148 120.109 137.431 120.438C137.714 120.767 138.074 121.023 138.48 121.184C139.927 121.834 141.626 121.289 143.062 120.935C145.213 120.406 147.364 119.935 149.574 119.549C154.385 118.711 159.257 118.265 164.142 118.216C166.368 118.189 168.579 118.29 170.805 118.385C172.418 118.448 174.155 118.575 175.521 117.591C177.081 116.47 177.586 114.28 176.059 112.915C173.908 110.984 169.272 112.105 166.788 112.306C157.773 113.043 148.816 114.358 139.975 116.242C138.964 116.454 139.389 117.988 140.405 117.771C146.238 116.533 152.116 115.539 158.038 114.788C160.95 114.435 163.866 114.137 166.788 113.894C168.165 113.782 169.541 113.682 170.918 113.603C171.456 113.571 172.026 113.513 172.574 113.529C174.279 113.566 174.478 113.264 173.456 115.29C172.547 117.084 172.838 116.877 171.262 116.819C170.595 116.819 169.928 116.745 169.262 116.713C167.896 116.657 166.53 116.627 165.164 116.623C162.256 116.623 159.356 116.761 156.463 117.036C154.011 117.269 151.564 117.597 149.138 118.02C147.622 118.284 146.116 118.591 144.616 118.93C143.954 119.083 143.288 119.242 142.626 119.406C142.309 119.491 141.986 119.565 141.669 119.644C140.493 120.046 139.491 119.517 138.663 118.057C139.383 117.322 138.249 116.195 137.523 116.935L137.528 116.914Z" fill="#7CE6D7"/>
<path d="M157.006 139.493C149.224 139.197 140.819 141.265 135.694 147.428C131.682 152.248 129.397 160.516 133.645 165.944C138.211 171.763 148.224 170.737 154.263 168.256C160.652 165.611 167.643 160.157 169.563 153.332C171.956 144.81 164.185 138.366 156.091 138.271C155.054 138.271 155.054 139.858 156.091 139.858C160.706 139.911 165.233 141.858 167.385 146.085C169.638 150.539 167.696 155.216 164.696 158.781C159.888 164.458 152.37 168.737 144.712 168.616C140.115 168.547 135.033 166.997 133.608 162.225C132.435 158.358 133.328 154.131 135.371 150.703C139.792 143.297 148.789 140.789 157.038 141.106C158.076 141.144 158.076 139.556 157.038 139.519L157.006 139.493Z" fill="#7CE6D7"/>
<path d="M149.278 151.248C148.946 151.127 148.589 151.091 148.239 151.142C147.889 151.194 147.558 151.331 147.277 151.543C146.996 151.754 146.773 152.032 146.63 152.35C146.488 152.668 146.429 153.017 146.46 153.364C146.622 155.427 148.934 156.009 150.671 155.887C152.171 155.76 153.924 155.216 153.397 153.369C153.3 153.043 153.133 152.74 152.907 152.483C152.68 152.225 152.4 152.019 152.085 151.877C151.604 151.69 151.082 151.626 150.569 151.692C150.37 151.692 148.547 152.348 149.321 151.56L148.052 151.396C148.193 151.533 148.301 151.699 148.368 151.882C148.435 152.065 148.459 152.26 148.439 152.454C148.442 152.592 148.481 152.728 148.552 152.847C148.624 152.966 148.725 153.064 148.847 153.133C148.969 153.202 149.107 153.239 149.248 153.239C149.388 153.24 149.527 153.204 149.649 153.137C149.834 153.061 150.036 153.037 150.234 153.068C150.431 153.099 150.616 153.183 150.767 153.312C150.919 153.44 151.031 153.608 151.091 153.796C151.151 153.983 151.156 154.184 151.107 154.374C151.063 154.558 151.087 154.75 151.174 154.918C151.261 155.085 151.405 155.218 151.581 155.291C151.757 155.364 151.954 155.374 152.137 155.319C152.319 155.263 152.476 155.146 152.58 154.988C153.118 154.036 153.769 152.142 152.962 151.147C152.424 150.476 151.386 150.677 150.741 151.068C150.343 151.345 149.972 151.659 149.633 152.004C148.982 152.57 148.558 152.835 148.8 151.75C149.203 149.777 151.117 148.206 152.865 147.418L151.682 146.524C151.062 148.817 149.953 150.954 148.428 152.793L149.805 153.353C149.766 152.627 149.956 151.906 150.349 151.29C150.741 150.674 151.318 150.192 151.999 149.909H151.209L151.628 150.587C151.472 151.586 153.026 152.015 153.182 151.005C153.387 149.698 152.548 148 150.994 148.64C149.138 149.402 148.176 151.491 148.213 153.353C148.213 153.988 149.128 154.48 149.595 153.919C151.306 151.876 152.554 149.497 153.258 146.942C153.295 146.79 153.287 146.631 153.234 146.484C153.181 146.337 153.086 146.208 152.96 146.113C152.834 146.019 152.683 145.962 152.524 145.95C152.366 145.939 152.208 145.972 152.069 146.048C150.458 146.764 149.097 147.93 148.154 149.402C147.498 150.46 146.675 152.11 147.342 153.327C147.452 153.522 147.599 153.693 147.776 153.831C147.953 153.97 148.156 154.072 148.374 154.132C148.591 154.193 148.819 154.21 149.043 154.184C149.268 154.157 149.485 154.087 149.681 153.978C150.179 153.688 150.633 153.332 151.031 152.92C151.23 152.745 151.451 152.444 151.714 152.391C151.951 152.232 151.94 152.322 151.677 152.671C151.673 153.219 151.511 153.755 151.209 154.216L152.682 154.824C152.815 154.33 152.799 153.809 152.638 153.323C152.476 152.838 152.174 152.409 151.77 152.088C151.366 151.768 150.875 151.569 150.359 151.517C149.842 151.464 149.321 151.56 148.859 151.793L150.074 152.481C150.1 151.807 149.885 151.147 149.466 150.613C149.403 150.51 149.317 150.423 149.214 150.357C149.112 150.291 148.996 150.249 148.874 150.233C148.753 150.217 148.63 150.229 148.514 150.266C148.397 150.303 148.291 150.366 148.203 150.449C147.385 151.29 147.229 152.745 148.256 153.523C149.025 154.099 149.402 153.523 150.246 153.39C153.112 153.025 151.44 154.295 150.429 154.337C149.977 154.385 149.52 154.353 149.079 154.242C147.957 153.868 147.887 153.387 148.869 152.798C149.832 153.184 150.246 151.65 149.3 151.269L149.278 151.248Z" fill="#7CE6D7"/>
<path d="M147.982 154.147C148.644 156.263 145.912 156.961 144.616 157.691C143.706 158.193 142.913 158.876 142.287 159.696C140.932 161.484 140.427 163.759 139.98 165.902C139.776 166.902 141.33 167.325 141.54 166.325C141.786 164.751 142.243 163.215 142.9 161.76C143.868 159.866 145.256 159.231 147.063 158.257C148.87 157.284 150.176 155.776 149.536 153.724C149.235 152.75 147.676 153.168 147.982 154.147V154.147Z" fill="#7CE6D7"/>
<path d="M150.671 153.084C150.286 153.136 149.935 153.328 149.686 153.621C149.438 153.915 149.309 154.289 149.326 154.671C149.326 155.3 149.751 155.702 150.042 156.205C150.731 157.233 151.257 158.359 151.601 159.543C151.859 160.68 152.112 162.717 151.51 163.775C150.396 165.738 148.385 165.362 146.67 165.362C145.056 165.362 143.809 165.891 143.863 163.68C143.895 162.437 144.777 161.178 145.476 160.199L144.002 160.009C144.313 161.624 144.477 163.263 144.492 164.907C144.492 165.643 145.637 166.05 145.992 165.304C146.857 163.515 147.543 161.648 148.041 159.728L146.455 159.517L146.734 163.537C146.739 163.709 146.8 163.874 146.907 164.009C147.015 164.144 147.164 164.241 147.333 164.287C147.501 164.332 147.68 164.322 147.842 164.26C148.005 164.197 148.142 164.085 148.235 163.939C148.423 163.735 148.561 163.49 148.638 163.225C148.692 162.976 148.197 161.299 147.998 161.897L149.579 162.109L149.692 158.289L148.079 158.501C148.42 159.578 148.522 160.714 148.38 161.834C148.278 162.717 149.789 162.918 149.993 162.045L151.004 156.914L149.531 157.099C149.881 157.809 149.977 158.614 149.805 159.384C149.687 160.4 151.3 160.389 151.418 159.384C151.555 158.331 151.384 157.261 150.923 156.3C150.842 156.168 150.723 156.061 150.581 155.994C150.439 155.927 150.28 155.902 150.124 155.923C149.967 155.943 149.821 156.007 149.701 156.108C149.581 156.209 149.494 156.342 149.45 156.491L148.434 161.622L150.02 161.834C150.181 160.573 150.058 159.292 149.66 158.083C149.606 157.901 149.487 157.744 149.326 157.64C149.164 157.536 148.97 157.493 148.779 157.518C148.588 157.543 148.412 157.634 148.284 157.776C148.155 157.917 148.082 158.099 148.079 158.289L147.966 162.109C147.966 163.035 149.273 163.167 149.552 162.32L149.638 162.061C149.675 161.926 149.676 161.784 149.64 161.648C149.604 161.513 149.533 161.389 149.434 161.289C147.761 159.501 147.423 162.347 146.842 163.135L148.348 163.537L148.068 159.517C148.009 158.66 146.718 158.395 146.482 159.305C146.027 161.094 145.397 162.836 144.599 164.505L146.105 164.907C146.088 163.121 145.908 161.34 145.567 159.585C145.427 158.855 144.454 158.887 144.094 159.395C143.018 160.918 141.158 164.246 142.593 166.071C143.846 167.658 147.788 167.045 149.471 166.944C152.128 166.796 153.091 165.14 153.381 162.675C153.519 161.494 153.452 160.299 153.182 159.141C153.037 158.517 151.569 154.56 151.128 154.639C152.15 154.454 151.714 152.92 150.698 153.105L150.671 153.084Z" fill="#7CE6D7"/>
<path d="M147.546 156.649L143.142 162.368L144.535 163.167L147.762 158.575L146.288 157.961L144.68 163.997C144.637 164.181 144.661 164.373 144.747 164.541C144.834 164.708 144.978 164.841 145.155 164.914C145.331 164.987 145.527 164.997 145.71 164.942C145.893 164.886 146.05 164.769 146.154 164.611C146.885 163.418 147.707 162.281 148.611 161.209L147.267 160.437C146.906 161.804 146.21 163.063 145.239 164.103L146.589 164.876C146.672 164.145 146.87 163.431 147.175 162.759C147.59 161.844 146.277 161.035 145.783 161.955C145.328 162.794 144.808 163.597 144.228 164.357L145.702 164.548L146.03 163.04L144.557 162.849L144.793 164.172C144.832 164.305 144.905 164.426 145.006 164.523C145.107 164.619 145.231 164.689 145.367 164.724C145.503 164.759 145.646 164.759 145.782 164.724C145.918 164.688 146.043 164.618 146.143 164.521C147.507 163.133 148.6 161.51 149.37 159.733H147.982C148.347 160.395 148.603 161.109 148.74 161.85C148.934 162.802 150.219 162.447 150.321 161.638C150.552 159.866 150.671 158.081 150.676 156.295H149.063V159.622C149.063 160.485 150.499 160.739 150.649 159.834C150.756 159.031 151.025 158.258 151.44 157.559H150.026C150.366 158.1 150.552 158.722 150.563 159.358C150.563 159.568 150.648 159.77 150.8 159.919C150.951 160.068 151.156 160.151 151.37 160.151C151.584 160.151 151.789 160.068 151.94 159.919C152.092 159.77 152.177 159.568 152.177 159.358L152.381 158.3H150.827C150.983 159.236 151.574 164.511 149.472 163.892C149.117 163.807 149.015 163.828 149.165 163.95L149.644 162.945L150.768 160.601L149.262 160.199C149.359 161.289 149.461 162.844 148.794 163.775C148.256 164.532 146.6 164.833 145.756 164.389C145.198 163.998 144.722 163.506 144.352 162.939L143.25 163.997C144.142 164.638 145.589 166.209 146.74 166.299C147.616 166.367 148.353 165.653 148.929 165.082C149.811 164.185 150.499 163.12 150.951 161.954C151.403 160.787 151.61 159.542 151.558 158.295C151.558 158.084 151.473 157.882 151.322 157.733C151.171 157.585 150.966 157.501 150.752 157.501C150.538 157.501 150.332 157.585 150.181 157.733C150.03 157.882 149.945 158.084 149.945 158.295V160.104C149.945 160.314 150.03 160.516 150.181 160.665C150.332 160.814 150.538 160.897 150.752 160.897C150.966 160.897 151.171 160.814 151.322 160.665C151.473 160.516 151.558 160.314 151.558 160.104V155.665C151.558 155.455 151.473 155.253 151.322 155.104C151.171 154.955 150.966 154.872 150.752 154.872C150.538 154.872 150.332 154.955 150.181 155.104C150.03 155.253 149.945 155.455 149.945 155.665C149.942 156.729 149.848 157.791 149.665 158.839L151.252 159.051C151.125 157.787 151.066 156.517 151.074 155.247C151.072 155.057 151 154.874 150.872 154.732C150.744 154.589 150.568 154.497 150.376 154.471C150.185 154.446 149.99 154.489 149.828 154.592C149.666 154.696 149.547 154.853 149.493 155.036C149.251 156.046 148.955 157.041 148.67 158.03L150.144 157.84L150.031 157.416C149.956 156.406 148.342 156.401 148.418 157.416C148.435 157.845 148.549 158.264 148.751 158.644C149.063 159.289 150.036 159.062 150.225 158.453C150.531 157.459 150.805 156.464 151.047 155.459L149.461 155.247C149.453 156.517 149.512 157.787 149.638 159.051C149.719 159.866 151.053 160.215 151.219 159.263C151.434 158.068 151.548 156.857 151.558 155.644H149.945V160.083H151.558V158.273H149.945C150.04 160.269 149.335 162.222 147.982 163.712C147.773 163.946 147.546 164.165 147.304 164.368C146.923 164.727 146.573 164.675 146.267 164.204C145.503 163.892 144.712 163.087 144.046 162.617C143.379 162.146 142.465 163.077 142.938 163.701C144.175 165.32 146.019 167.124 148.315 166.346C150.73 165.505 151.058 162.289 150.875 160.173C150.816 159.469 149.746 158.993 149.375 159.776C148.837 160.892 148.299 162.003 147.762 163.125C147.573 163.516 147.224 164.056 147.278 164.521C147.455 165.711 148.923 165.516 149.827 165.447C153.327 165.188 152.774 160.305 152.37 157.85C152.236 157.035 151.031 157.162 150.816 157.85C150.645 158.333 150.556 158.841 150.553 159.353H152.166C152.107 158.443 151.849 157.557 151.408 156.755C151.336 156.637 151.233 156.539 151.111 156.471C150.989 156.403 150.852 156.367 150.711 156.367C150.571 156.367 150.433 156.403 150.311 156.471C150.189 156.539 150.087 156.637 150.015 156.755C149.534 157.572 149.209 158.468 149.058 159.4L150.671 159.612V156.284C150.671 156.074 150.586 155.872 150.435 155.723C150.283 155.574 150.078 155.491 149.864 155.491C149.65 155.491 149.445 155.574 149.294 155.723C149.143 155.872 149.058 156.074 149.058 156.284C149.052 158.071 148.934 159.855 148.703 161.627L150.289 161.416C150.107 160.551 149.797 159.717 149.37 158.94C149.297 158.822 149.195 158.724 149.073 158.656C148.951 158.588 148.813 158.552 148.673 158.552C148.533 158.552 148.395 158.588 148.273 158.656C148.151 158.724 148.049 158.822 147.977 158.94C147.275 160.597 146.267 162.111 145.003 163.405L146.353 163.754L146.116 162.431C145.992 161.728 144.981 161.707 144.643 162.241C144.375 162.639 144.194 163.086 144.11 163.556C144.026 164.026 144.04 164.507 144.153 164.971C144.288 165.722 145.256 165.643 145.627 165.161C146.206 164.403 146.726 163.601 147.181 162.765L145.788 161.961C145.416 162.751 145.163 163.59 145.035 164.452C144.938 165.151 145.783 165.881 146.385 165.225C147.541 163.98 148.378 162.482 148.826 160.855C149.025 160.136 148.014 159.453 147.477 160.083C146.487 161.249 145.588 162.487 144.788 163.786L146.261 164.399L147.901 158.384C147.945 158.201 147.921 158.009 147.834 157.841C147.747 157.673 147.603 157.541 147.427 157.468C147.251 157.395 147.054 157.385 146.871 157.44C146.689 157.496 146.532 157.613 146.428 157.771L143.201 162.368C142.599 163.22 143.981 163.955 144.594 163.167L148.982 157.453C149.606 156.639 148.208 155.866 147.59 156.649H147.546Z" fill="#7CE6D7"/>
<path d="M216.154 175.742C222.607 171.859 227.738 166.066 233.438 161.22C239.622 155.967 246.113 151.073 252.798 146.439C265.779 137.446 279.412 129.399 293.033 121.374C293.21 121.264 293.336 121.091 293.386 120.892C293.435 120.692 293.404 120.481 293.299 120.304C293.194 120.126 293.022 119.996 292.821 119.94C292.62 119.884 292.405 119.907 292.221 120.004C278.6 128.029 264.962 136.06 251.98 145.069C245.855 149.301 239.875 153.787 234.143 158.548C227.904 163.733 222.349 170.187 215.321 174.372C214.433 174.901 215.245 176.276 216.133 175.742H216.154Z" fill="#7CE6D7"/>
<path d="M313.861 96.732C306.87 97.4303 299.341 99.1814 295.039 105.196C291.323 110.37 291.404 119.395 294.894 124.707C298.857 130.743 306.956 130.96 313.248 129.008C319.54 127.056 326.052 123.633 325.993 116.237C325.961 112.269 324.503 108.138 322.895 104.54C321.508 101.435 319.05 98.7212 315.329 99.065C314.302 99.1602 314.291 100.747 315.329 100.652C320.314 100.197 321.917 106.022 323.1 109.698C324.175 113.132 325.17 117.195 323.481 120.607C321.793 124.019 317.722 125.76 314.243 127.008C310.478 128.352 306.343 129.172 302.412 128.066C294.625 125.924 292.474 116.216 294.716 109.328C297.298 101.393 306.44 99.0597 313.888 98.3191C314.909 98.2186 314.92 96.6315 313.888 96.732H313.861Z" fill="#7CE6D7"/>
<path d="M324.616 158.099C317.625 158.797 310.097 160.548 305.794 166.563C302.079 171.737 302.159 180.762 305.649 186.074C309.613 192.11 317.711 192.327 324.003 190.374C330.295 188.422 336.807 185 336.748 177.604C336.716 173.636 335.259 169.505 333.651 165.907C332.263 162.802 329.806 160.088 326.084 160.432C325.057 160.527 325.046 162.114 326.084 162.019C331.069 161.564 332.672 167.388 333.855 171.065C334.931 174.498 335.925 178.561 334.237 181.974C332.548 185.386 328.477 187.126 324.998 188.375C321.234 189.718 317.098 190.538 313.167 189.433C305.38 187.29 303.229 177.583 305.472 170.695C308.053 162.759 317.195 160.426 324.643 159.686C325.665 159.585 325.676 157.998 324.643 158.099H324.616Z" fill="#7CE6D7"/>
<path d="M303.315 112.185L308.408 117.898C308.509 117.994 308.633 118.062 308.769 118.097C308.904 118.131 309.047 118.131 309.182 118.095C309.317 118.059 309.441 117.99 309.541 117.893C309.641 117.797 309.714 117.676 309.752 117.544C310.828 114.761 310.624 111.878 310.876 108.952C311.155 105.929 311.927 102.969 313.162 100.186C315.643 94.543 319.85 89.8001 325.197 86.617C326.084 86.088 325.272 84.7125 324.385 85.2469C319.112 88.3703 314.882 92.9415 312.215 98.3984C310.91 101.054 310.004 103.882 309.527 106.794C308.989 110.227 309.478 113.825 308.188 117.121L309.537 116.766L304.472 111.063C303.783 110.296 302.649 111.423 303.332 112.185H303.315Z" fill="#7CE6D7"/>
<path d="M218.752 181.926C246.49 181.094 274.235 180.917 301.987 181.397C303.025 181.397 303.025 179.81 301.987 179.81C274.242 179.323 246.497 179.5 218.752 180.339C217.714 180.371 217.709 181.958 218.752 181.926Z" fill="#7CE6D7"/>
<path d="M307.784 166.277C317.267 169.939 326.388 174.447 335.033 179.746C335.915 180.275 336.727 178.916 335.845 178.376C327.086 173.011 317.844 168.45 308.236 164.749C307.274 164.373 306.854 165.907 307.811 166.277H307.784Z" fill="#7CE6D7"/>
<path d="M325.003 159.088C315.388 170.115 309.818 184.001 309.188 198.516C309.145 199.537 310.758 199.537 310.801 198.516C311.412 184.418 316.815 170.929 326.144 160.21C326.816 159.437 325.681 158.31 325.003 159.088Z" fill="#7CE6D7"/>
<path d="M109.924 176.165L170.03 175.393L176.941 175.303C178.183 175.303 179.425 175.26 180.667 175.255C182.415 175.255 183.593 176.683 183.561 178.429C183.48 182.132 181.114 182 178.016 182.132L170.547 182.466L140.131 183.783C134.683 184.021 129.23 184.312 123.783 184.497C118.867 184.645 109.521 183.069 111.704 176.033C112.006 175.054 110.451 174.636 110.145 175.609C109.069 179.069 110.973 182.582 114.038 184.397C118.389 186.968 124.121 186.095 128.924 185.883L166.266 184.217L175.333 183.82C177.656 183.714 180.888 184.18 183.023 183.116C185.529 181.873 185.97 176.937 184.389 174.858C183.577 173.8 182.437 173.705 181.162 173.657C177.817 173.53 174.413 173.747 171.063 173.79L152.446 174.033L109.903 174.562C108.865 174.562 108.865 176.149 109.903 176.149L109.924 176.165Z" fill="#7CE6D7"/>
<path d="M352.768 370.581C351.413 371.417 349.865 371.888 348.466 372.623C347.068 373.359 345.708 374.464 345.31 375.988C345.161 376.461 345.186 376.97 345.38 377.427C345.727 377.979 346.26 378.394 346.885 378.601C349.726 379.842 352.794 380.5 355.901 380.535C359.009 380.569 362.091 379.98 364.96 378.802C365.969 378.325 367.011 377.918 368.079 377.585C369.394 377.322 370.732 377.187 372.074 377.183C373.485 377.102 374.888 376.926 376.274 376.654C376.971 376.578 377.631 376.308 378.178 375.877C378.677 375.311 378.977 374.602 379.033 373.856C379.669 369.734 378.71 365.528 376.344 362.069C376.046 361.584 375.646 361.168 375.172 360.847C374.593 360.553 373.957 360.385 373.306 360.355C370.617 360.032 367.799 359.44 365.083 359.376C363.137 359.334 362.158 360.244 360.781 361.561C357.936 364.36 356.275 368.428 352.768 370.581Z" fill="#323444"/>
<path d="M392.396 370.19C392.396 372.782 392.714 375.528 394.311 377.596C395.041 378.49 395.926 379.252 396.924 379.844C400.302 381.96 404.776 382.738 408.336 380.945C408.911 380.691 409.403 380.284 409.755 379.77C410.293 378.85 410.008 377.702 409.707 376.686L404.555 359.123C401.226 359.625 396.333 359.98 393.375 361.641C391.229 362.842 392.396 367.873 392.396 370.19Z" fill="#323444"/>
<path d="M349.746 262.041C349.434 263.009 348.305 263.459 347.686 264.274C346.961 265.231 347.036 266.559 347.299 267.723C347.625 269.439 348.444 271.027 349.66 272.299C350.277 272.929 351.038 273.405 351.88 273.686C352.722 273.968 353.621 274.047 354.5 273.918C356.232 273.595 357.727 272.087 357.786 270.358C357.755 269.571 357.583 268.796 357.28 268.067L353.613 257.635C353.598 257.561 353.567 257.491 353.522 257.43C353.478 257.369 353.421 257.318 353.355 257.28C353.216 257.25 353.071 257.275 352.951 257.349C352.085 257.751 350.348 258.174 349.843 259.058C349.337 259.941 350.112 261.084 349.746 262.041Z" fill="#FBB3B2"/>
<path d="M348.031 261.518C349.37 261.311 350.542 260.539 351.795 260.031C353.048 259.523 354.618 259.327 355.672 260.174C355.974 260.417 356.264 260.751 356.656 260.745C356.122 258.158 355.315 255.634 354.247 253.212C354.21 253.096 354.136 252.994 354.038 252.921C353.891 252.862 353.727 252.862 353.58 252.921L349.961 253.852C348.622 254.196 348.466 254.09 348.569 255.386C348.595 255.963 348.897 261.518 348.031 261.518Z" fill="#323444"/>
<path d="M347.633 186.185C347.095 186.999 347.095 188.015 347.095 188.973C347.095 193.654 347.143 198.363 347.848 202.997C348.015 204.108 348.224 205.219 348.332 206.34C348.454 207.902 348.479 209.469 348.407 211.033L347.869 231.4C347.805 233.892 347.676 236.569 346.111 238.526C345.636 239.182 345.414 239.983 345.482 240.785C345.89 245.896 346.751 250.964 347.606 256.016C348.983 255.405 350.487 255.123 351.995 255.194C353.504 255.265 354.974 255.686 356.285 256.423C358.999 248.031 360.499 239.304 360.744 230.501C360.867 226.168 360.679 221.809 361.357 217.529C362.491 210.324 362.029 202.933 361.195 195.686C360.932 193.39 360.372 191.025 358.877 189.248C357.462 187.692 355.577 186.624 353.5 186.2C351.51 185.687 349.73 186.216 347.633 186.185Z" fill="#5B5583"/>
<path opacity="0.1" d="M347.633 186.185C347.095 186.999 347.095 188.015 347.095 188.973C347.095 193.654 347.143 198.363 347.848 202.997C348.015 204.108 348.224 205.219 348.332 206.34C348.454 207.902 348.479 209.469 348.407 211.033L347.869 231.4C347.805 233.892 347.676 236.569 346.111 238.526C345.636 239.182 345.414 239.983 345.482 240.785C345.89 245.896 346.751 250.964 347.606 256.016C348.983 255.405 350.487 255.123 351.995 255.194C353.504 255.265 354.974 255.686 356.285 256.423C358.999 248.031 360.499 239.304 360.744 230.501C360.867 226.168 360.679 221.809 361.357 217.529C362.491 210.324 362.029 202.933 361.195 195.686C360.932 193.39 360.372 191.025 358.877 189.248C357.462 187.692 355.577 186.624 353.5 186.2C351.51 185.687 349.73 186.216 347.633 186.185Z" fill="black"/>
<path d="M354.204 245.25C350.597 263.432 352.567 282.259 359.861 299.338C360.492 300.602 360.933 301.949 361.173 303.337C361.469 305.929 360.254 308.421 359.56 310.928C357.947 316.631 358.877 322.705 359.91 328.54C360.34 330.973 360.783 333.405 361.238 335.835C361.684 338.205 362.115 340.781 360.996 342.929C361.959 346.876 362.529 350.785 363.491 354.732C363.593 355.044 363.625 355.374 363.583 355.7C363.389 356.216 363.047 356.666 362.599 356.996C361.881 357.711 361.365 358.598 361.102 359.57C360.839 360.541 360.838 361.563 361.098 362.535C363.556 360.799 366.981 361.408 369.788 362.535C372.596 363.662 375.36 365.18 378.393 365.18C377.952 361.678 377.527 358.001 378.839 354.716C379.603 352.811 380.947 351.013 380.909 348.976C380.872 347.151 379.737 345.521 379.463 343.717C379.361 342.595 379.404 341.464 379.592 340.353C380.313 333.877 379.495 327.339 378.678 320.874C378.585 319.599 378.28 318.348 377.774 317.171C377.392 316.409 376.822 315.679 376.833 314.827C376.833 313.838 377.645 313.034 377.946 312.092C378.484 310.357 377.495 307.998 378.984 306.924C382.91 304.088 381.404 297.317 381.318 292.529C381.25 288.399 381.071 284.273 380.78 280.15C383.252 286.987 384.263 294.252 383.749 301.491C383.577 303.861 383.259 306.352 384.201 308.543C384.921 310.225 386.352 311.611 386.739 313.394C386.981 314.494 386.809 315.631 386.863 316.753C386.916 317.874 387.303 319.097 388.288 319.663C388.363 324.762 388.825 330.217 388.906 335.316C388.854 337.923 389.07 340.529 389.551 343.093C389.793 343.909 389.926 344.751 389.949 345.601C389.828 346.665 389.541 347.706 389.1 348.685C388.162 351.415 387.917 354.329 388.386 357.173C388.855 360.018 390.023 362.706 391.788 365.005C393.058 362.789 395.703 361.614 398.285 361.429C400.866 361.244 403.415 361.884 405.915 362.529C405.533 359.438 406.158 356.308 407.701 353.589C408.114 352.976 408.432 352.306 408.642 351.6C408.932 350.256 408.255 348.918 407.889 347.59C407.292 345.474 407.502 343.194 407.642 340.982C408.111 333.576 407.777 326.142 406.647 318.806C406.472 317.36 406.128 315.94 405.62 314.573C405.426 314.087 405.19 313.621 405.028 313.129C404.774 312.247 404.63 311.337 404.598 310.421L403.98 301.956C403.544 296.026 405.523 290.17 406.905 284.382C407.523 281.79 408.196 279.203 408.61 276.568C409.174 272.982 409.266 269.315 410.094 265.776C410.836 262.602 412.175 259.507 412.455 256.254C412.885 251.212 410.755 246.34 408.69 241.716C407.83 239.812 404.576 240.002 402.485 239.664C387.648 237.267 372.02 237.251 358.028 242.653C356.581 243.242 355.277 244.128 354.204 245.25V245.25Z" fill="#3C354C"/>
<path d="M364.901 151.354L366.546 157.649C366.994 159.093 367.241 160.589 367.283 162.098C367.3 162.649 367.176 163.194 366.923 163.685C366.652 164.088 366.305 164.437 365.901 164.712C364.777 165.553 363.997 167.515 362.712 168.097C363.373 169.229 364.288 168.494 365.481 169.06C367.584 170.065 369.509 171.51 371.789 172.007C373.94 172.472 376.199 172.033 378.334 171.478C381.362 170.668 384.373 169.552 386.809 167.6C389.245 165.648 390.633 163.923 390.622 160.839C387.933 161.151 385.54 158.48 384.352 156.078C383.939 155.165 383.636 154.208 383.448 153.226L382.007 146.989C380.437 147.328 379.157 148.434 377.656 149.01C376.156 149.587 374.381 149.64 372.714 149.714C369.755 149.846 366.812 150.221 363.917 150.835C363.519 150.915 363.018 151.163 363.115 151.544" fill="#FBB3B2"/>
<path opacity="0.1" d="M364.901 151.354L366.546 157.649C366.994 159.093 367.241 160.589 367.283 162.098C367.3 162.649 367.176 163.194 366.923 163.685C366.652 164.088 366.305 164.437 365.901 164.712C364.777 165.553 363.997 167.515 362.712 168.097C363.373 169.229 364.288 168.494 365.481 169.06C367.584 170.065 369.509 171.51 371.789 172.007C373.94 172.472 376.199 172.033 378.334 171.478C381.362 170.668 384.373 169.552 386.809 167.6C389.245 165.648 390.633 163.923 390.622 160.839C387.933 161.151 385.54 158.48 384.352 156.078C383.939 155.165 383.636 154.208 383.448 153.226L382.007 146.989C380.437 147.328 379.157 148.434 377.656 149.01C376.156 149.587 374.381 149.64 372.714 149.714C369.755 149.846 366.812 150.221 363.917 150.835C363.519 150.915 363.018 151.163 363.115 151.544" fill="black"/>
<path d="M371.967 154.824C379.831 154.824 386.207 148.552 386.207 140.816C386.207 133.079 379.831 126.807 371.967 126.807C364.102 126.807 357.727 133.079 357.727 140.816C357.727 148.552 364.102 154.824 371.967 154.824Z" fill="#FBB3B2"/>
<path d="M375.887 163.907C376.648 162.289 377.748 160.847 379.113 159.675C381.119 157.945 383.862 156.543 384.335 153.962L388.68 158.94C388.916 159.171 389.1 159.448 389.218 159.755C389.273 160.042 389.265 160.337 389.194 160.621C389.124 160.904 388.993 161.17 388.809 161.4C387.734 163.087 386.04 164.294 384.437 165.516C380.764 168.378 377.248 171.429 373.903 174.657C373.755 174.826 373.558 174.944 373.338 174.996C373.13 175.001 372.925 174.944 372.752 174.832C369.865 173.341 367.311 171.298 365.239 168.822C365.083 168.637 364.89 168.425 364.637 168.441C364.484 168.469 364.344 168.541 364.234 168.647C362.787 169.811 361.206 171.203 359.351 171.023C361.754 169.325 363.115 166.489 363.62 163.616C363.72 162.633 363.926 161.663 364.234 160.723C364.393 160.252 364.668 159.827 365.033 159.486C365.399 159.145 365.845 158.897 366.331 158.765C365.158 160.527 365.96 163.024 367.535 164.447C369.066 165.725 370.902 166.601 372.87 166.992C374.698 167.33 375.236 165.293 375.887 163.907Z" fill="#323444"/>
<path d="M357.361 246.689C359.388 247.181 361.308 248.017 363.276 248.636C366.863 249.741 370.639 250.131 374.381 249.784C375.533 249.759 376.653 249.408 377.608 248.773C377.86 248.572 378.092 248.334 378.361 248.149C378.81 247.884 379.298 247.686 379.807 247.562C384.738 246.044 388.868 242.769 392.875 239.563C393.004 239.457 393.149 239.325 393.138 239.156C393.12 239.04 393.063 238.934 392.977 238.854L390.869 236.474C385.341 237.399 379.678 237.05 374.069 236.913C372.918 236.862 371.764 236.892 370.617 237.003C369.509 237.13 368.417 237.405 367.326 237.637C363.179 238.526 358.942 238.865 354.742 239.447C354.448 239.468 354.163 239.555 353.908 239.701C353.731 239.835 353.58 240 353.462 240.187L351.989 242.224C351.417 242.909 350.996 243.704 350.752 244.557C350.408 246.144 351.128 246.673 352.5 246.467C354.119 246.234 355.77 246.309 357.361 246.689Z" fill="#323444"/>
<path d="M373.843 172.234C372.198 170.576 370.333 169.144 368.299 167.976C367.477 167.462 366.565 167.103 365.61 166.918C365.13 166.824 364.634 166.836 364.158 166.951C363.683 167.066 363.238 167.282 362.857 167.584C362.378 168.002 362.077 168.584 361.615 169.023C361.033 169.504 360.365 169.875 359.646 170.118C357.198 171.147 354.878 172.448 352.731 173.996C351.56 174.801 350.505 175.759 349.595 176.842C347.159 179.91 346.794 184.084 346.858 187.978C346.907 190.687 349.547 192.697 351.365 194.723C353.07 196.717 354.612 198.84 355.979 201.071C356.957 202.595 357.979 204.246 357.856 206.06C357.753 207.547 356.871 208.943 357.011 210.425C357.06 210.954 357.232 211.44 357.28 211.953C357.377 213.011 356.952 214.069 356.845 215.128C356.699 216.625 357.194 218.111 357.221 219.619C357.201 220.651 357.068 221.678 356.823 222.682C355.791 227.517 354.495 232.379 354.758 237.315L351.779 237.844C352.061 238.116 352.274 238.45 352.401 238.818C352.528 239.186 352.565 239.578 352.509 239.963C352.452 240.348 352.305 240.714 352.078 241.033C351.852 241.351 351.552 241.612 351.203 241.796C355.855 243.325 360.883 242.552 365.814 242.547C369.896 242.547 373.962 243.076 378.038 243.002C382.114 242.928 386.319 242.203 389.68 239.933C390.595 239.32 391.434 238.6 392.396 238.066C393.686 237.409 395.075 236.962 396.51 236.743C399.168 236.245 401.871 236.007 404.577 236.035C405.899 236.035 407.341 236.087 408.395 235.304C409.556 234.437 409.852 232.866 410.008 231.443C410.164 229.94 410.261 228.432 410.288 226.925C410.333 225.751 410.27 224.575 410.099 223.412C409.938 222.562 409.728 221.721 409.47 220.894L407.443 213.868C406.604 210.969 407.771 207.79 408.018 204.785C408.077 204.076 408.088 203.251 407.534 202.796C407.335 202.632 407.061 202.521 406.997 202.267C406.968 202.146 406.964 202.021 406.986 201.899C407.008 201.777 407.056 201.661 407.126 201.558C408.201 199.442 409.814 197.575 411.288 195.665C413.763 192.315 416.06 188.842 418.171 185.259C417.51 177.762 414.301 170.702 409.062 165.219C407.986 164.071 406.755 162.971 405.249 162.453C404.265 162.157 403.244 161.995 402.216 161.971C398 161.691 393.612 161.442 389.939 159.358C389.675 159.178 389.377 159.054 389.062 158.993C388.25 158.903 387.658 159.691 387.131 160.315C385.776 161.902 383.781 162.812 382.028 163.982C378.758 166.166 376.204 169.171 373.843 172.234Z" fill="#5B5583"/>
<path d="M418.537 187.423C419.376 190.036 419.296 192.829 419.57 195.554C419.732 197.198 420.025 198.827 420.446 200.426C420.639 201.305 420.984 202.144 421.468 202.907C421.952 203.605 422.646 204.171 422.952 204.96C423.12 205.494 423.194 206.052 423.173 206.61L423.237 210.26C423.375 212.195 423.076 214.135 422.361 215.942L420.043 222.878C418.79 226.634 417.505 230.448 415.246 233.717C414.928 234.271 414.446 234.715 413.864 234.992C413.409 235.111 412.942 235.182 412.471 235.204C411.651 235.348 410.908 235.768 410.369 236.393C409.83 237.018 409.53 237.808 409.519 238.627C408.981 237.853 408.309 237.178 407.535 236.632L402.818 232.929C401.205 231.638 399.522 230.326 397.564 229.58C400.197 228.772 402.535 227.228 404.293 225.138C406.051 223.048 407.155 220.5 407.47 217.804C407.468 217.002 407.652 216.209 408.008 215.487C408.4 214.863 409.126 214.387 409.18 213.652C409.245 212.726 408.18 212.027 408.18 211.102C408.18 210.488 408.642 209.98 408.847 209.403C409.038 208.691 409.038 207.942 408.847 207.229L408.196 203.674C408.158 203.318 408.048 202.973 407.873 202.658C407.63 202.357 407.36 202.077 407.067 201.823C405.948 200.59 406.443 198.648 407.067 197.13C408.499 193.76 410.345 190.575 412.563 187.645C413.352 186.661 414.083 185.633 414.751 184.566C415.321 183.592 415.451 182.243 416.053 181.392C416.827 183.391 417.876 185.365 418.537 187.423Z" fill="#5B5583"/>
<path d="M397.398 229.797C397.158 229.973 396.95 230.187 396.785 230.432C396.151 231.215 395.307 231.807 394.349 232.141C394.886 232.522 395.376 232.897 395.881 233.284C399.621 236.125 403.046 239.347 406.099 242.896C406.438 241.706 408.465 241.79 408.96 240.653C409.076 240.327 409.113 239.979 409.067 239.637C408.965 237.855 408.705 236.085 408.293 234.347C408.13 233.452 407.762 232.605 407.217 231.871C406.464 230.977 405.292 230.549 404.174 230.178C402.48 229.596 399.119 228.776 397.398 229.797Z" fill="#323444"/>
<path d="M390.676 233.956C389.062 235.13 387.648 236.601 385.836 237.405C384.556 237.976 383.099 238.225 381.98 239.076C382.588 240.394 384.169 241.076 385.637 241.023C387.106 240.881 388.515 240.373 389.729 239.547C390.692 238.965 391.821 238.288 392.87 238.696C393.031 239.5 392.332 240.256 392.332 241.071C392.332 241.886 393.02 242.478 393.698 242.907C396.925 244.954 401.076 244.785 404.921 244.547C405.142 244.555 405.359 244.491 405.54 244.367C405.623 244.271 405.686 244.16 405.726 244.04C405.766 243.92 405.781 243.794 405.771 243.668C405.819 242.832 405.841 242.002 405.846 241.166C405.955 240.492 405.866 239.802 405.59 239.176C405.313 238.55 404.861 238.014 404.287 237.632C402.2 235.868 399.949 234.3 397.564 232.95C395.198 231.601 392.8 232.4 390.676 233.956Z" fill="#FBB3B2"/>
<path d="M376.968 134.959C374.58 135.24 372.843 137.075 373.085 139.07C373.327 141.064 375.457 142.44 377.844 142.154C380.232 141.868 381.969 140.038 381.727 138.049C381.485 136.06 379.355 134.679 376.968 134.959ZM377.78 141.604C375.758 141.842 373.956 140.673 373.746 138.99C373.537 137.308 375.016 135.753 377.032 135.515C379.049 135.277 380.856 136.446 381.065 138.128C381.275 139.81 379.796 141.366 377.78 141.604V141.604Z" fill="#3C354C"/>
<path d="M365.33 136.335C362.943 136.615 361.206 138.451 361.448 140.44C361.69 142.429 363.819 143.81 366.207 143.529C368.595 143.249 370.332 141.413 370.09 139.419C369.848 137.425 367.718 136.054 365.33 136.335ZM366.143 142.974C364.12 143.212 362.319 142.043 362.115 140.366C361.91 138.689 363.378 137.128 365.4 136.885C367.422 136.642 369.224 137.816 369.428 139.498C369.633 141.181 368.159 142.736 366.143 142.974Z" fill="#3C354C"/>
<path d="M356.689 137.356L361.878 138.446L361.367 139.789L356.474 138.377L356.689 137.356Z" fill="#3C354C"/>
<path d="M385.615 133.938L380.829 136.208L381.652 137.393L386.067 134.88L385.615 133.938Z" fill="#3C354C"/>
<path d="M369.611 138.107L373.252 137.678L373.064 138.567L369.939 138.774L369.611 138.107Z" fill="#3C354C"/>
<path d="M362.551 136.906C362.893 136.181 363.076 135.393 363.088 134.594C363.101 134.116 363.184 133.642 363.336 133.187C363.6 132.609 364.002 132.103 364.508 131.711C366.186 130.314 368.59 129.595 370.961 129.494C373.547 129.377 376.119 129.924 378.425 131.082C379.13 131.406 379.761 131.867 380.281 132.436C381.033 133.34 381.195 134.51 381.953 135.404C382.471 135.946 383.122 136.348 383.843 136.57C384.565 136.793 385.333 136.828 386.072 136.673C386.336 135.753 385.992 134.779 386.126 133.838C386.338 133.031 386.624 132.245 386.981 131.489C387.815 129.071 386.599 126.267 384.093 124.823C383.217 124.294 382.179 123.95 381.523 123.236C380.867 122.522 380.711 121.781 380.259 121.067C379.06 119.178 375.957 118.295 373.596 119.168C372.854 119.443 372.198 119.861 371.445 120.157C370.047 120.723 368.455 120.824 366.917 121.014C365.401 121.152 363.919 121.535 362.529 122.146C361.201 122.792 360.088 123.829 359.781 125.067C359.636 125.638 359.668 126.23 359.523 126.796C358.781 129.669 353.989 131.066 353.72 133.996C353.624 135.054 354.21 136.07 354.941 136.933C355.447 137.52 356.657 139.091 357.512 139.318C358.367 139.546 359.017 138.747 359.835 138.472C361.125 138.075 361.905 137.991 362.551 136.906Z" fill="#CBCEDA"/>
<path d="M423.215 323.233C423.215 349.812 440.166 371.322 461.112 371.322Z" fill="#46455B"/>
<path d="M461.112 371.327C461.112 344.447 480.03 322.699 503.407 322.699Z" fill="#7CE6D7"/>
<path d="M436.95 325.646C436.95 350.896 447.759 371.327 461.112 371.327Z" fill="#7CE6D7"/>
<path d="M461.112 371.327C461.112 336.983 482.977 309.188 509.995 309.188Z" fill="#46455B"/>
<path opacity="0.1" d="M459.471 380.511C464.675 380.511 468.893 379.81 468.893 378.945C468.893 378.08 464.675 377.379 459.471 377.379C454.268 377.379 450.05 378.08 450.05 378.945C450.05 379.81 454.268 380.511 459.471 380.511Z" fill="#7CE6D7"/>
<path d="M453.142 371.666C453.142 371.666 458.52 371.502 460.133 370.37C461.746 369.237 468.398 367.878 468.802 369.698C469.205 371.518 476.868 378.749 470.808 378.797C464.747 378.844 456.707 377.866 455.094 376.898C453.481 375.93 453.142 371.666 453.142 371.666Z" fill="#A8A8A8"/>
<path opacity="0.2" d="M470.921 378.162C464.855 378.21 456.826 377.231 455.207 376.263C453.976 375.527 453.486 372.877 453.32 371.66H453.142C453.142 371.66 453.481 375.924 455.1 376.892C456.718 377.86 464.747 378.839 470.813 378.792C472.566 378.792 473.168 378.162 473.136 377.257C472.894 377.808 472.254 378.151 470.921 378.162Z" fill="black"/>
<path d="M12.0942 338.766C12.0942 359.927 25.576 377.025 42.2413 377.025Z" fill="#46455B"/>
<path d="M42.2412 377.025C42.2412 355.641 57.2986 338.337 75.8892 338.337Z" fill="#7CE6D7"/>
<path d="M23.0161 340.691C23.0161 360.794 31.6203 377.035 42.2412 377.035Z" fill="#7CE6D7"/>
<path d="M42.2412 377.025C42.2412 349.701 59.6379 327.587 81.1324 327.587Z" fill="#46455B"/>
<path opacity="0.1" d="M40.9349 384.336C45.0751 384.336 48.4314 383.777 48.4314 383.087C48.4314 382.398 45.0751 381.839 40.9349 381.839C36.7948 381.839 33.4385 382.398 33.4385 383.087C33.4385 383.777 36.7948 384.336 40.9349 384.336Z" fill="#7CE6D7"/>
<path d="M35.9014 377.294C35.9014 377.294 40.1766 377.162 41.4619 376.236C42.7471 375.311 48.0441 374.253 48.3614 375.707C48.6787 377.162 54.7877 382.907 49.9747 382.944C45.1617 382.981 38.7569 382.204 37.4716 381.437C36.1864 380.67 35.9014 377.294 35.9014 377.294Z" fill="#A8A8A8"/>
<path opacity="0.2" d="M50.0446 382.484C45.2047 382.521 38.8268 381.744 37.5416 380.971C36.5628 380.389 36.1756 378.278 36.0412 377.31H35.9014C35.9014 377.31 36.1702 380.701 37.4555 381.474C38.7408 382.246 45.1348 383.018 49.9585 382.981C51.3514 382.981 51.8353 382.484 51.8085 381.759C51.6149 382.183 51.0825 382.452 50.0446 382.484Z" fill="black"/>
</g>
<defs>
<clipPath id="clip0">
<rect width="510" height="401" fill="white"/>
</clipPath>
</defs>
</svg>
